<?xml version="1.0" encoding="utf-8"?>
<!-- Generator: Adobe Illustrator 16.0.0, SVG Export Plug-In . SVG Version: 6.00 Build 0)  -->
<!DOCTYPE svg PUBLIC "-//W3C//DTD SVG 1.1//EN" "http://www.w3.org/Graphics/SVG/1.1/DTD/svg11.dtd">
<svg version="1.1" xmlns="http://www.w3.org/2000/svg" xmlns:xlink="http://www.w3.org/1999/xlink" x="0px" y="0px" width="152px"
	 height="32px" viewBox="0 0 152 32" enable-background="new 0 0 152 32" xml:space="preserve">
<g id="Layer_1">
	<g>
		<g>
			<path fill="#F5F5F5" d="M0.742,3.967h4.164v5.658v2.48c0.986-1.844,3.084-2.64,5.15-2.608c2.701,0,4.387,0.923,5.404,2.448
				c1.049,1.527,1.367,3.593,1.367,5.946v9.602h-4.164v-9.411c0-1.335-0.223-2.479-0.795-3.306c-0.604-0.827-1.559-1.369-3.02-1.369
				c-1.654,0-2.639,0.669-3.211,1.528c-0.572,0.857-0.732,1.907-0.732,2.797v9.761H0.742V3.967z"/>
			<path fill="#F5F5F5" d="M39.463,27.493h-4.168v-2.511c-1.111,2.033-3.432,3.051-5.881,3.051c-5.594,0-8.867-4.356-8.867-9.283
				c0-5.5,3.973-9.253,8.867-9.253c3.18,0,5.119,1.686,5.881,3.086v-2.545h4.168V27.493z M24.709,18.846
				c0,2.161,1.559,5.309,5.311,5.309c2.322,0,3.846-1.208,4.641-2.798c0.414-0.763,0.604-1.59,0.668-2.447
				c0.033-0.827-0.127-1.686-0.477-2.448c-0.732-1.653-2.352-3.084-4.863-3.084c-3.371,0-5.279,2.734-5.279,5.437V18.846z"/>
			<path fill="#F5F5F5" d="M44.162,3.967h4.166v6.135v2.1c1.717-2.131,4.229-2.704,5.818-2.704c4.131,0,8.711,3.021,8.711,9.189
				c0,5.913-4.133,9.347-8.904,9.347c-2.732,0-4.863-1.336-5.785-3.051v2.511h-4.006V3.967z M58.691,18.718
				c0-2.861-2.193-5.341-5.246-5.341c-3.242,0-5.277,2.543-5.277,5.373c0,2.925,2.035,5.404,5.182,5.404
				c3.404,0,5.342-2.702,5.342-5.404V18.718z"/>
			<path fill="#F5F5F5" d="M69.689,20.149c0.189,2.797,2.67,4.354,5.055,4.323c2.035,0,3.402-0.923,4.197-2.353h4.291
				c-0.826,1.939-2.066,3.402-3.529,4.387c-1.463,1.018-3.178,1.526-4.992,1.526c-5.373,0-9.219-4.356-9.219-9.22
				c0-4.959,3.879-9.316,9.156-9.316c2.605,0,4.896,0.986,6.518,2.672c2.131,2.194,2.924,4.928,2.574,7.98H69.689z M79.639,16.97
				c-0.158-1.653-1.908-3.975-4.959-3.943c-3.084,0-4.768,2.227-4.926,3.943H79.639z"/>
			<path fill="#F5F5F5" d="M87.488,10.038H91.4v2.194c0.381-0.794,2.066-2.735,5.086-2.735c1.432,0,3.02,0.414,4.291,1.781
				c0.383,0.413,0.826,1.145,1.049,1.591c0.318-0.542,0.699-1.114,1.273-1.654c1.08-1.018,2.605-1.718,4.451-1.718
				c1.461,0,3.305,0.383,4.641,1.749c1.59,1.654,1.906,3.085,1.906,6.677v2.227h-4.164v-2.067c0-1.112-0.096-2.32-0.699-3.243
				c-0.445-0.856-1.271-1.432-2.734-1.432c-1.461,0-2.479,0.638-3.02,1.592c-0.541,0.953-0.604,1.875-0.604,2.924v9.57h-4.166v-9.57
				c0-1.017-0.096-2.003-0.539-2.893c-0.51-0.922-1.369-1.59-2.861-1.623c-1.527,0-2.479,0.732-2.988,1.623
				c-0.51,0.922-0.668,2.003-0.668,3.021v9.442h-4.166V10.038z"/>
			<path fill="#F5F5F5" d="M134.377,27.493h-3.91v-2.321c-0.73,1.367-2.287,2.894-5.436,2.861c-5.723-0.031-6.805-4.388-6.805-7.439
				V10.038h4.166v9.506c0,2.576,0.859,4.61,3.814,4.578c2.988,0,4.006-1.971,4.006-4.451v-9.633h4.164V27.493z"/>
			<path fill="#F5F5F5" d="M146.646,14.744c-0.033-0.922-0.51-1.875-2.129-1.875c-1.4,0-2.066,0.888-2.066,1.748
				c0.029,1.111,1.301,1.717,2.955,2.193c2.799,0.763,5.816,1.589,5.85,5.341c0.064,3.593-2.957,5.882-6.613,5.882
				c-2.701,0-6.357-1.399-6.676-5.628h4.166c0.158,1.876,1.779,2.258,2.574,2.258c1.303,0,2.416-0.859,2.383-2.035
				c0-1.494-1.301-1.907-4.514-3.021c-2.352-0.73-4.26-2.034-4.291-4.547c0-3.433,2.893-5.563,6.264-5.563
				c2.352,0,5.848,1.05,6.199,5.247H146.646z"/>
			<rect x="109.934" y="23.328" fill="#0ADDA6" width="4.164" height="4.165"/>
		</g>
	</g>
</g>
<g id="Layer_2">
</g>
</svg>
